<svg xmlns="http://www.w3.org/2000/svg" version="1.1" xmlns:xlink="http://www.w3.org/1999/xlink" xmlns:svgjs="http://svgjs.dev/svgjs" viewBox="0 0 800 800"><g fill="none" stroke-width="3" stroke="hsl(231, 100%, 64%)" stroke-linecap="round"><line x1="422.5" y1="400" x2="377.5" y2="400" transform="rotate(0, 400, 400)" opacity="0.88"></line><line x1="720.5" y1="400" x2="79.5" y2="400" transform="rotate(4, 400, 400)" opacity="0.87"></line><line x1="111" y1="400" x2="689" y2="400" transform="rotate(8, 400, 400)" opacity="0.56"></line><line x1="579.5" y1="400" x2="220.5" y2="400" transform="rotate(12, 400, 400)" opacity="0.43"></line><line x1="649.5" y1="400" x2="150.5" y2="400" transform="rotate(16, 400, 400)" opacity="0.69"></line><line x1="101" y1="400" x2="699" y2="400" transform="rotate(20, 400, 400)" opacity="0.67"></line><line x1="632" y1="400" x2="168" y2="400" transform="rotate(24, 400, 400)" opacity="0.45"></line><line x1="249" y1="400" x2="551" y2="400" transform="rotate(28, 400, 400)" opacity="0.33"></line><line x1="467.5" y1="400" x2="332.5" y2="400" transform="rotate(32, 400, 400)" opacity="0.34"></line><line x1="84" y1="400" x2="716" y2="400" transform="rotate(36, 400, 400)" opacity="0.84"></line><line x1="475.5" y1="400" x2="324.5" y2="400" transform="rotate(40, 400, 400)" opacity="0.85"></line><line x1="471" y1="400" x2="329" y2="400" transform="rotate(44, 400, 400)" opacity="0.39"></line><line x1="686.5" y1="400" x2="113.5" y2="400" transform="rotate(48, 400, 400)" opacity="0.78"></line><line x1="343.5" y1="400" x2="456.5" y2="400" transform="rotate(52, 400, 400)" opacity="0.45"></line><line x1="293" y1="400" x2="507" y2="400" transform="rotate(56, 400, 400)" opacity="0.08"></line><line x1="83" y1="400" x2="717" y2="400" transform="rotate(60, 400, 400)" opacity="0.21"></line><line x1="475.5" y1="400" x2="324.5" y2="400" transform="rotate(64, 400, 400)" opacity="0.88"></line><line x1="112.5" y1="400" x2="687.5" y2="400" transform="rotate(68, 400, 400)" opacity="0.83"></line><line x1="58" y1="400" x2="742" y2="400" transform="rotate(72, 400, 400)" opacity="0.77"></line><line x1="684.5" y1="400" x2="115.5" y2="400" transform="rotate(76, 400, 400)" opacity="0.92"></line><line x1="557.5" y1="400" x2="242.5" y2="400" transform="rotate(80, 400, 400)" opacity="0.65"></line><line x1="610" y1="400" x2="190" y2="400" transform="rotate(84, 400, 400)" opacity="0.97"></line><line x1="591.5" y1="400" x2="208.5" y2="400" transform="rotate(88, 400, 400)" opacity="0.63"></line><line x1="686.5" y1="400" x2="113.5" y2="400" transform="rotate(92, 400, 400)" opacity="0.59"></line><line x1="56" y1="400" x2="744" y2="400" transform="rotate(96, 400, 400)" opacity="0.74"></line><line x1="208.5" y1="400" x2="591.5" y2="400" transform="rotate(100, 400, 400)" opacity="0.77"></line><line x1="39" y1="400" x2="761" y2="400" transform="rotate(104, 400, 400)" opacity="0.31"></line><line x1="253.5" y1="400" x2="546.5" y2="400" transform="rotate(108, 400, 400)" opacity="0.58"></line><line x1="627.5" y1="400" x2="172.5" y2="400" transform="rotate(112, 400, 400)" opacity="0.31"></line><line x1="659.5" y1="400" x2="140.5" y2="400" transform="rotate(116, 400, 400)" opacity="0.67"></line><line x1="501" y1="400" x2="299" y2="400" transform="rotate(120, 400, 400)" opacity="0.32"></line><line x1="341.5" y1="400" x2="458.5" y2="400" transform="rotate(124, 400, 400)" opacity="0.20"></line><line x1="410" y1="400" x2="390" y2="400" transform="rotate(128, 400, 400)" opacity="0.16"></line><line x1="94.5" y1="400" x2="705.5" y2="400" transform="rotate(132, 400, 400)" opacity="0.53"></line><line x1="462.5" y1="400" x2="337.5" y2="400" transform="rotate(136, 400, 400)" opacity="0.65"></line><line x1="213" y1="400" x2="587" y2="400" transform="rotate(140, 400, 400)" opacity="0.59"></line><line x1="165" y1="400" x2="635" y2="400" transform="rotate(144, 400, 400)" opacity="0.66"></line><line x1="130" y1="400" x2="670" y2="400" transform="rotate(148, 400, 400)" opacity="0.79"></line><line x1="454" y1="400" x2="346" y2="400" transform="rotate(152, 400, 400)" opacity="0.72"></line><line x1="369.5" y1="400" x2="430.5" y2="400" transform="rotate(156, 400, 400)" opacity="0.40"></line><line x1="68.5" y1="400" x2="731.5" y2="400" transform="rotate(160, 400, 400)" opacity="0.92"></line><line x1="580.5" y1="400" x2="219.5" y2="400" transform="rotate(164, 400, 400)" opacity="0.62"></line><line x1="318.5" y1="400" x2="481.5" y2="400" transform="rotate(168, 400, 400)" opacity="0.13"></line><line x1="384.5" y1="400" x2="415.5" y2="400" transform="rotate(172, 400, 400)" opacity="0.74"></line><line x1="130" y1="400" x2="670" y2="400" transform="rotate(176, 400, 400)" opacity="0.35"></line><line x1="185" y1="400" x2="615" y2="400" transform="rotate(180, 400, 400)" opacity="0.91"></line><line x1="232.5" y1="400" x2="567.5" y2="400" transform="rotate(184, 400, 400)" opacity="0.41"></line><line x1="221.5" y1="400" x2="578.5" y2="400" transform="rotate(188, 400, 400)" opacity="0.30"></line><line x1="408.5" y1="400" x2="391.5" y2="400" transform="rotate(192, 400, 400)" opacity="0.79"></line><line x1="531.5" y1="400" x2="268.5" y2="400" transform="rotate(196, 400, 400)" opacity="0.49"></line><line x1="397" y1="400" x2="403" y2="400" transform="rotate(200, 400, 400)" opacity="0.25"></line><line x1="324.5" y1="400" x2="475.5" y2="400" transform="rotate(204, 400, 400)" opacity="0.62"></line><line x1="549" y1="400" x2="251" y2="400" transform="rotate(208, 400, 400)" opacity="0.72"></line><line x1="155.5" y1="400" x2="644.5" y2="400" transform="rotate(212, 400, 400)" opacity="0.54"></line><line x1="668" y1="400" x2="132" y2="400" transform="rotate(216, 400, 400)" opacity="0.86"></line><line x1="92.5" y1="400" x2="707.5" y2="400" transform="rotate(220, 400, 400)" opacity="0.63"></line><line x1="687" y1="400" x2="113" y2="400" transform="rotate(224, 400, 400)" opacity="0.77"></line><line x1="188" y1="400" x2="612" y2="400" transform="rotate(228, 400, 400)" opacity="0.44"></line><line x1="676" y1="400" x2="124" y2="400" transform="rotate(232, 400, 400)" opacity="0.54"></line><line x1="518.5" y1="400" x2="281.5" y2="400" transform="rotate(236, 400, 400)" opacity="0.97"></line><line x1="384.5" y1="400" x2="415.5" y2="400" transform="rotate(240, 400, 400)" opacity="0.38"></line><line x1="560.5" y1="400" x2="239.5" y2="400" transform="rotate(244, 400, 400)" opacity="0.25"></line><line x1="243.5" y1="400" x2="556.5" y2="400" transform="rotate(248, 400, 400)" opacity="0.58"></line><line x1="482.5" y1="400" x2="317.5" y2="400" transform="rotate(252, 400, 400)" opacity="0.65"></line><line x1="387" y1="400" x2="413" y2="400" transform="rotate(256, 400, 400)" opacity="0.89"></line><line x1="307.5" y1="400" x2="492.5" y2="400" transform="rotate(260, 400, 400)" opacity="0.57"></line><line x1="53.5" y1="400" x2="746.5" y2="400" transform="rotate(264, 400, 400)" opacity="0.25"></line><line x1="141" y1="400" x2="659" y2="400" transform="rotate(268, 400, 400)" opacity="0.91"></line><line x1="385.5" y1="400" x2="414.5" y2="400" transform="rotate(272, 400, 400)" opacity="0.19"></line><line x1="525.5" y1="400" x2="274.5" y2="400" transform="rotate(276, 400, 400)" opacity="0.65"></line><line x1="248.5" y1="400" x2="551.5" y2="400" transform="rotate(280, 400, 400)" opacity="0.83"></line><line x1="107" y1="400" x2="693" y2="400" transform="rotate(284, 400, 400)" opacity="0.15"></line><line x1="619" y1="400" x2="181" y2="400" transform="rotate(288, 400, 400)" opacity="0.90"></line><line x1="405.5" y1="400" x2="394.5" y2="400" transform="rotate(292, 400, 400)" opacity="0.92"></line><line x1="723" y1="400" x2="77" y2="400" transform="rotate(296, 400, 400)" opacity="0.33"></line><line x1="631" y1="400" x2="169" y2="400" transform="rotate(300, 400, 400)" opacity="0.98"></line><line x1="659" y1="400" x2="141" y2="400" transform="rotate(304, 400, 400)" opacity="0.61"></line><line x1="286" y1="400" x2="514" y2="400" transform="rotate(308, 400, 400)" opacity="0.13"></line><line x1="536.5" y1="400" x2="263.5" y2="400" transform="rotate(312, 400, 400)" opacity="0.95"></line><line x1="679" y1="400" x2="121" y2="400" transform="rotate(316, 400, 400)" opacity="0.62"></line><line x1="697.5" y1="400" x2="102.5" y2="400" transform="rotate(320, 400, 400)" opacity="0.52"></line><line x1="100" y1="400" x2="700" y2="400" transform="rotate(324, 400, 400)" opacity="0.42"></line><line x1="78.5" y1="400" x2="721.5" y2="400" transform="rotate(328, 400, 400)" opacity="0.38"></line><line x1="201" y1="400" x2="599" y2="400" transform="rotate(332, 400, 400)" opacity="0.46"></line><line x1="327.5" y1="400" x2="472.5" y2="400" transform="rotate(336, 400, 400)" opacity="0.92"></line><line x1="560" y1="400" x2="240" y2="400" transform="rotate(340, 400, 400)" opacity="0.26"></line><line x1="41" y1="400" x2="759" y2="400" transform="rotate(344, 400, 400)" opacity="0.77"></line><line x1="416.5" y1="400" x2="383.5" y2="400" transform="rotate(348, 400, 400)" opacity="0.11"></line></g></svg>