<svg xmlns="http://www.w3.org/2000/svg" version="1.1" xmlns:xlink="http://www.w3.org/1999/xlink" xmlns:svgjs="http://svgjs.dev/svgjs" viewBox="0 0 800 800"><defs><linearGradient x1="50%" y1="0%" x2="50%" y2="100%" id="ccchaos-grad"><stop stop-color="hsl(206, 75%, 49%)" stop-opacity="1" offset="0%"></stop><stop stop-color="hsl(331, 90%, 56%)" stop-opacity="1" offset="100%"></stop></linearGradient></defs><g stroke-width="2" stroke="url(#ccchaos-grad)" fill="none" stroke-linecap="round"><path d="M419.85 100.4C430.19 101.54 440.6 103.65 451.06 106.63 461.5 109.96 471.94 113.98 482.27 118.57 492.5 123.23 502.49 128.27 512.11 133.59 521.44 138.71 530.18 143.96 538.15 149.27 545.6 154.21 552.05 159.15 557.35 164.06 563.71 170.77 569.9 183.62 570.62 189.95 571.65 196.01 578.61 209.04 587.17 216.24 595.83 221.11 606.57 226.38 619.25 232.04 633.47 237.74 648.52 243.87 663.51 250.41 677.55 257.02 689.56 264.03 698.5 271.43 703.99 278.89 705.3 286.71 702.3 294.85 696.07 303.04 686.87 311.52 675.94 320.25 665.43 329.01 656.23 338 649.79 347.17 647.7 356.36 649.95 365.72 656.48 375.22 666.92 384.73 679.22 394.16 691.64 403.5 703.13 412.85 711.51 422.13 715.72 431.35 715.73 440.61 710.94 449.85 701.91 459.07 689.81 468.39 675.49 477.75 660.29 487.17 645.53 496.74 632.14 506.44 620.9 516.25 612.46 526.27 606.79 536.45 603.66 546.78 603.12 557.31 604.17 567.97 606.09 578.71 608.86 589.56 611.19 600.39 612.52 611.1 613.11 621.72 611.98 632.03 609.03 641.88 604.73 651.33 598.64 660.08 590.97 667.94 582.19 675.09 572.25 681.11 561.48 685.86 550.11 689.67 538.34 692.09 526.39 693.07 514.29 693.11 502.26 691.81 490.46 689.23 478.7 686.08 467.23 681.98 456.11 677.16 445.07 672.42 434.36 667.45 423.98 662.52 413.65 658.41 403.62 654.83 393.89 651.97 384.16 650.48 374.93 649.94 366.19 650.31 357.41 652 349.08 654.36 341.2 657.21 333.25 660.86 325.71 664.56 318.53 668.07 311.22 671.7 304.2 674.69 297.41 676.84 290.36 678.55 283.4 679.12 276.47 678.49 269.11 677.09 261.64 674.39 253.98 670.45 245.82 665.69 237.4 659.78 228.76 652.83 219.7 645.23 210.52 636.78 201.35 627.64 192.13 618.09 183.2 608.05 174.78 597.66 166.82 587.11 159.69 576.35 153.57 565.5 148.23 554.65 144 543.79 140.89 532.99 138.38 522.28 136.73 511.65 135.73 501.14 134.7 490.73 133.82 480.43 132.9 470.24 131.26 460.14 129.25 450.13 126.85 440.21 123.63 430.34 120.22 420.53 116.83 410.79 113.31 401.07 110.41 391.4 108.44 381.8 107.21 372.2 107.35 362.88 108.85 353.86 111.19 344.83 114.65 336.11 118.96 327.7 123.43 319.3 128.2 311.22 132.98 303.49 137.15 295.77 140.99 288.4 144.42 281.4 147.02 274.4 149.34 267.75 151.51 261.47 153.29 255.15 155.34 249.17 157.88 243.52 160.68 237.77 164.33 232.29 168.92 227.06 174.18 221.66 180.47 216.42 187.72 211.34 195.62 205.98 204.3 200.69 213.61 195.45 223.27 189.86 233.31 184.27 243.55 178.66 253.82 172.69 264.11 166.7 274.36 160.73 284.42 154.46 294.38 148.27 304.22 142.25 313.83 136.08 323.36 130.21 332.87 124.73 342.18 119.36 351.55 114.55 361.02 110.43 370.38 106.66 379.93 103.73 389.72 101.73 399.46 100.26 409.5 99.8 419.84 100.4" stroke-dasharray="3 1" transform="rotate(0, 400, 400)" opacity="0.16"></path><path d="M422.42 111C432.42 112.13 442.33 114.17 452.11 117.06 461.86 120.28 471.42 124.18 480.7 128.64 489.85 133.19 498.59 138.13 506.79 143.36 514.72 148.43 521.94 153.65 528.32 158.96 534.28 163.94 539.27 168.94 543.24 173.92 548.09 180.79 553.39 193.96 555.06 200.4 556.85 204.43 559.17 208.62 562.45 212.99 567.38 217.19 573.87 221.65 582.15 226.4 592.39 231.07 604.31 236.09 617.6 241.46 631.78 246.83 646.17 252.59 659.9 258.72 672.24 264.89 682.26 271.45 689.12 278.37 692.71 285.33 692.45 292.64 688.4 300.28 681.68 307.96 672.58 315.94 662.22 324.19 652.59 332.46 644.37 340.98 638.81 349.73 637.27 358.48 639.67 367.44 645.94 376.6 655.77 385.76 667.31 394.9 679.06 404.01 690.13 413.13 698.54 422.24 703.3 431.34 704.34 440.48 700.97 449.64 693.57 458.82 683.09 468.1 670.16 477.45 655.93 486.87 641.57 496.43 627.94 506.11 615.85 515.9 606 525.85 598.53 535.93 593.41 546.11 590.8 556.43 589.99 566.81 590.41 577.2 592.09 587.62 593.89 597.94 595.29 608.04 596.48 617.99 596.47 627.55 595.05 636.59 592.64 645.19 588.63 653.06 583.12 660.02 576.59 666.29 568.79 671.48 559.98 675.45 550.48 678.56 540.32 680.39 529.74 680.89 518.84 680.6 507.79 679.08 496.75 676.44 485.63 673.33 474.65 669.4 463.9 664.84 453.18 660.4 442.71 655.78 432.54 651.19 422.39 647.39 412.53 644.06 402.97 641.36 393.41 639.92 384.34 639.32 375.75 639.54 367.11 640.97 358.89 643.01 351.08 645.51 343.17 648.78 335.59 652.12 328.3 655.33 320.83 658.72 313.56 661.58 306.41 663.73 298.97 665.54 291.53 666.37 284.03 666.12 276.14 665.23 268.08 663.16 259.83 659.95 251.17 656 242.33 650.96 233.33 644.92 224.11 638.26 214.9 630.74 205.85 622.51 196.94 613.85 188.48 604.65 180.66 595.03 173.41 585.19 167.07 575.08 161.76 564.81 157.21 554.48 153.71 544.07 151.24 533.67 149.25 523.29 147.98 512.96 147.23 502.71 146.31 492.53 145.45 482.44 144.44 472.45 142.67 462.53 140.51 452.71 137.93 442.99 134.58 433.32 131.05 423.73 127.57 414.24 123.98 404.76 121.02 395.37 118.98 386.07 117.68 376.78 117.73 367.79 119.13 359.12 121.38 350.45 124.76 342.09 129.02 334.06 133.51 326.02 138.34 318.31 143.25 310.94 147.63 303.56 151.71 296.52 155.39 289.82 158.24 283.1 160.75 276.71 163.03 270.65 164.79 264.53 166.68 258.7 168.88 253.16 171.18 247.49 174.17 242.05 177.96 236.82 182.3 231.39 187.6 226.1 193.84 220.93 200.73 215.48 208.46 210.08 216.91 204.71 225.82 199.02 235.24 193.31 245.01 187.61 254.97 181.58 265.09 175.55 275.27 169.56 285.41 163.32 295.52 157.2 305.56 151.25 315.47 145.22 325.29 139.5 335.06 134.18 344.69 129 354.3 124.39 363.94 120.44 373.49 116.85 383.12 114.07 392.85 112.19 402.55 110.81 412.41 110.41 422.41 111" stroke-dasharray="9 8" transform="rotate(4.04, 400, 400)" opacity="0.51"></path><path d="M421.32 121.61C430.9 122.71 440.23 124.69 449.27 127.47 458.28 130.59 466.94 134.36 475.17 138.68 483.27 143.11 490.85 147.93 497.79 153.05 504.5 158.06 510.48 163.23 515.64 168.51 522.54 176.03 532.01 190.6 535.09 197.59 538.28 204.08 546.94 216.88 554.17 223.38 560.96 227.56 569.22 231.96 579.03 236.61 590.36 241.14 602.91 245.98 616.27 251.13 629.93 256.24 643.25 261.69 655.43 267.49 665.93 273.3 673.93 279.46 678.82 285.97 680.69 292.5 679.09 299.37 674.22 306.57 667.22 313.78 658.35 321.31 648.66 329.12 639.91 336.94 632.64 345.04 627.9 353.39 626.87 361.73 629.4 370.33 635.4 379.16 644.63 387.99 655.44 396.85 666.52 405.72 677.14 414.6 685.5 423.52 690.69 432.47 692.62 441.46 690.55 450.5 684.69 459.6 675.84 468.78 664.4 478.04 651.32 487.39 637.66 496.85 624.17 506.42 611.64 516.08 600.78 525.85 591.84 535.71 584.97 545.63 580.4 555.61 577.66 565.61 576.37 575.53 576.58 585.42 577.36 595.13 578.23 604.56 579.37 613.77 579.81 622.55 579.28 630.74 578.17 638.49 575.75 645.48 572.02 651.58 567.46 657.02 561.65 661.41 554.77 664.67 547.21 667.15 538.83 668.46 529.82 668.56 520.43 667.97 510.66 666.31 500.69 663.64 490.56 660.61 480.39 656.86 470.28 652.57 460.14 648.43 450.13 644.14 440.32 639.9 430.53 636.39 420.93 633.29 411.57 630.75 402.2 629.36 393.26 628.71 384.72 628.8 376.15 629.98 367.92 631.72 360.01 633.88 352 636.78 344.24 639.77 336.67 642.67 328.91 645.81 321.25 648.5 313.63 650.6 305.73 652.46 297.77 653.47 289.71 653.54 281.32 653.07 272.78 651.55 264.08 648.97 255.1 645.77 246.02 641.53 236.92 636.34 227.76 630.57 218.76 623.97 210.08 616.63 201.7 608.87 193.89 600.53 186.84 591.73 180.41 582.67 174.92 573.28 170.45 563.66 166.68 553.94 163.88 544.08 161.99 534.16 160.44 524.23 159.47 514.3 158.88 504.41 158.01 494.55 157.08 484.75 155.95 475.05 154.02 465.38 151.68 455.81 148.93 446.35 145.45 436.92 141.81 427.58 138.25 418.35 134.62 409.15 131.61 400.04 129.52 391.05 128.16 382.05 128.12 373.38 129.4 365.04 131.55 356.69 134.82 348.65 139 340.95 143.46 333.23 148.34 325.83 153.34 318.76 157.9 311.67 162.21 304.89 166.16 298.44 169.31 291.94 172.07 285.74 174.53 279.84 176.39 273.85 178.24 268.12 180.25 262.63 182.19 257 184.64 251.56 187.75 246.29 191.26 240.81 195.63 235.44 200.86 230.17 206.69 224.62 213.38 219.11 220.82 213.63 228.78 207.85 237.36 202.06 246.39 196.28 255.74 190.22 265.37 184.18 275.19 178.21 285.1 172.03 295.07 165.99 305.03 160.16 314.97 154.28 324.86 148.73 334.68 143.6 344.44 138.62 354.14 134.2 363.79 130.45 373.4 127.04 383 124.41 392.58 122.65 402.15 121.37 411.73 121.01 421.31 121.61" stroke-dasharray="7 10" transform="rotate(8.08, 400, 400)" opacity="0.62"></path><path d="M416.73 132.22C425.81 133.29 434.53 135.2 442.84 137.88 451.11 140.88 458.93 144.51 466.23 148.69 473.42 152.98 480.03 157.68 485.99 162.68 491.79 167.59 496.91 172.7 501.32 177.93 505.59 182.93 509.21 187.98 512.24 193.05 516.72 200.18 525.42 213.95 530.9 220.67 535.78 224.87 541.6 229.17 548.56 233.59 556.92 237.8 566.55 242.18 577.4 246.77 589.31 251.23 601.94 255.94 614.86 260.93 627.58 265.84 639.5 271.06 649.94 276.6 658.52 282.11 664.56 287.95 667.63 294.12 667.98 300.28 665.29 306.77 659.81 313.58 652.72 320.39 644.22 327.51 635.25 334.93 627.39 342.35 621.04 350.05 617.07 358.03 616.5 366.01 619.13 374.25 624.86 382.76 633.51 391.27 643.61 399.84 654.01 408.47 664.16 417.11 672.4 425.81 677.9 434.58 680.6 443.37 679.69 452.25 675.28 461.2 668.02 470.22 658.12 479.32 646.35 488.51 633.65 497.77 620.63 507.13 608.05 516.55 596.58 526.04 586.56 535.58 578.25 545.12 571.94 554.68 567.36 564.18 564.28 573.55 562.81 582.82 562.21 591.86 562.09 600.55 562.6 608.99 562.88 616.95 562.61 624.29 561.45 634.26 553.17 649.09 545.91 653.53 540.14 655.45 533.48 656.3 526.09 656.07 518.29 655.26 509.95 653.49 501.23 650.83 492.31 647.91 483.16 644.36 473.89 640.34 464.56 636.51 455.21 632.55 445.91 628.63 436.61 625.4 427.38 622.53 418.26 620.14 409.15 618.8 400.35 618.12 391.84 618.07 383.3 619.03 375.02 620.49 366.94 622.33 358.78 624.87 350.76 627.52 342.84 630.11 334.76 632.97 326.7 635.48 318.61 637.48 310.3 639.34 301.9 640.46 293.4 640.76 284.66 640.64 275.8 639.57 266.87 637.56 257.81 635 248.75 631.49 239.81 627.09 230.97 622.17 222.44 616.43 214.36 609.97 206.69 603.09 199.69 595.62 193.51 587.65 187.97 579.41 183.36 570.79 179.73 561.88 176.69 552.84 174.52 543.61 173.12 534.26 171.93 524.86 171.16 515.41 170.64 505.96 169.74 496.52 168.71 487.1 167.39 477.74 165.28 468.41 162.75 459.15 159.83 449.99 156.24 440.86 152.51 431.81 148.88 422.88 145.23 413.97 142.19 405.15 140.06 396.47 138.65 387.78 138.52 379.41 139.68 371.37 141.7 363.32 144.84 355.58 148.9 348.16 153.31 340.72 158.17 333.58 163.24 326.76 167.96 319.91 172.49 313.35 176.7 307.08 180.15 300.75 183.22 294.69 185.94 288.88 188 282.98 189.93 277.3 191.89 271.82 193.62 266.2 195.71 260.73 198.28 255.39 201.09 249.85 204.63 244.4 208.92 239.02 213.72 233.39 219.34 227.78 225.71 222.2 232.6 216.35 240.15 210.5 248.26 204.68 256.74 198.62 265.62 192.6 274.78 186.68 284.15 180.59 293.67 174.67 303.27 168.98 312.94 163.28 322.61 157.92 332.24 152.99 341.87 148.22 351.45 144.01 360.93 140.45 370.41 137.23 379.82 134.76 389.12 133.11 398.43 131.92 407.64 131.62 416.72 132.22" stroke-dasharray="7 4" transform="rotate(12.12, 400, 400)" opacity="0.72"></path><path d="M409.4 142.83C417.94 143.87 426.05 145.71 433.69 148.28 441.3 151.16 448.4 154.65 454.97 158.67 461.46 162.82 467.38 167.37 472.71 172.23 477.96 177.04 482.64 182.06 486.76 187.22 490.9 192.19 494.6 197.23 497.97 202.31 501.59 207.11 505.13 211.93 508.78 216.75 513.06 221.27 517.79 225.82 523.18 230.39 529.61 234.7 536.97 239.08 545.37 243.55 554.89 247.81 565.41 252.21 576.76 256.78 588.71 261.21 600.93 265.85 612.96 270.72 624.4 275.5 634.7 280.55 643.3 285.88 649.97 291.17 654.17 296.75 655.6 302.63 654.67 308.49 651.12 314.67 645.27 321.14 638.24 327.61 630.21 334.38 622.01 341.44 615.04 348.5 609.57 355.85 606.31 363.49 606.16 371.12 608.86 379.03 614.32 387.22 622.41 395.42 631.82 403.71 641.56 412.07 651.2 420.44 659.25 428.91 664.97 437.45 668.29 446.01 668.41 454.67 665.33 463.41 659.59 472.19 651.24 481.06 640.89 489.99 629.34 498.98 617.08 508.03 604.81 517.11 593.14 526.22 582.46 535.34 573.09 544.41 565.34 553.44 559.12 562.37 554.34 571.1 551.14 579.7 548.98 588.01 547.54 595.93 546.99 603.58 546.58 610.71 546.01 617.22 545.09 625.95 539.29 638.54 533.94 642.07 529.64 643.5 524.47 643.96 518.53 643.45 512.24 642.47 505.31 640.64 497.86 638.04 490.21 635.24 482.18 631.91 473.87 628.16 465.48 624.63 456.91 620.99 448.23 617.39 439.53 614.42 430.76 611.77 421.97 609.54 413.18 608.25 404.56 607.53 396.12 607.37 387.65 608.12 379.31 609.32 371.09 610.86 362.79 613.06 354.55 615.37 346.34 617.65 337.99 620.23 329.62 622.52 321.19 624.39 312.61 626.2 303.94 627.37 295.2 627.84 286.34 627.98 277.43 627.29 268.54 625.76 259.66 623.77 250.91 620.91 242.4 617.22 234.12 613.06 226.27 608.13 218.98 602.5 212.17 596.49 206.09 589.86 200.85 582.73 196.22 575.31 192.47 567.49 189.62 559.34 187.25 551.03 185.61 542.48 184.6 533.76 183.66 524.97 183 516.08 182.47 507.14 181.48 498.18 180.27 489.21 178.75 480.27 176.44 471.34 173.71 462.46 170.63 453.65 166.93 444.86 163.13 436.15 159.47 427.54 155.81 418.94 152.76 410.44 150.6 402.07 149.14 393.69 148.92 385.61 149.95 377.85 151.83 370.08 154.82 362.61 158.73 355.44 163.05 348.25 167.87 341.34 172.95 334.72 177.78 328.06 182.5 321.67 186.95 315.53 190.73 309.33 194.12 303.37 197.14 297.62 199.48 291.77 201.61 286.11 203.65 280.62 205.34 274.97 207.22 269.46 209.43 264.05 211.72 258.45 214.57 252.91 218.06 247.44 221.93 241.73 226.53 236.05 231.84 230.4 237.62 224.5 244.08 218.63 251.12 212.81 258.56 206.77 266.48 200.82 274.77 194.97 283.32 189.01 292.13 183.24 301.09 177.72 310.19 172.21 319.37 167.06 328.55 162.34 337.8 157.81 347 153.81 356.12 150.45 365.26 147.42 374.3 145.1 383.19 143.58 392.1 142.48 400.85 142.22 409.39 142.82" stroke-dasharray="8 1" transform="rotate(16.16, 400, 400)" opacity="0.15"></path><path d="M400.53 153.43C408.52 154.44 416.06 156.21 423.13 158.67 430.18 161.42 436.75 164.77 442.82 168.62 448.85 172.62 454.39 177.01 459.44 181.72 464.5 186.4 469.14 191.31 473.4 196.38 477.8 201.29 481.98 206.3 486.06 211.36 490.5 216.19 495.08 221.04 499.97 225.91 505.52 230.52 511.64 235.15 518.47 239.8 526.19 244.2 534.75 248.67 544.16 253.2 554.37 257.53 565.24 261.97 576.57 266.55 588.07 270.98 599.43 275.59 610.23 280.39 620.15 285.09 628.69 290.03 635.42 295.2 641.53 303.01 638.75 319.93 630.63 329.07 623.83 335.25 616.36 341.71 608.96 348.46 602.86 355.2 598.22 362.23 595.63 369.55 595.84 376.85 598.6 384.45 603.79 392.33 611.33 400.21 620.07 408.2 629.15 416.28 638.26 424.37 646.07 432.56 651.9 440.82 655.73 449.11 656.73 457.5 654.86 465.95 650.55 474.43 643.71 482.98 634.83 491.58 624.58 500.21 613.33 508.87 601.67 517.52 590.2 526.17 579.26 534.78 569.22 543.29 560.41 551.74 552.86 560.02 546.59 568.07 541.74 575.95 537.98 583.5 535.09 590.63 532.46 600.63 528.92 617.05 526.73 623.1 523.93 627.58 514.45 631.39 507.66 630.73 502.62 629.63 496.92 627.78 490.65 625.26 484.18 622.62 477.24 619.5 469.9 616.04 462.47 612.8 454.72 609.47 446.72 606.17 438.7 603.46 430.48 601.01 422.08 598.93 413.69 597.69 405.33 596.95 397.02 596.68 388.7 597.25 380.4 598.2 372.12 599.46 363.79 601.34 355.45 603.32 347.07 605.3 338.62 607.59 330.12 609.64 321.55 611.36 312.92 613.07 304.23 614.25 295.52 614.82 286.8 615.15 278.12 614.75 269.57 613.61 261.14 612.1 252.95 609.8 245.12 606.74 237.62 603.28 230.63 599.1 224.26 594.24 218.41 589.04 213.29 583.23 209 576.91 205.25 570.32 202.3 563.29 200.14 555.91 198.33 548.35 197.11 540.52 196.37 532.48 195.57 524.35 194.94 516.07 194.31 507.7 193.16 499.29 191.75 490.83 189.99 482.37 187.47 473.9 184.56 465.44 181.32 457.04 177.53 448.64 173.69 440.3 170 432.04 166.35 423.79 163.32 415.62 161.14 407.56 159.64 399.49 159.33 391.72 160.23 384.23 161.96 376.73 164.77 369.51 168.51 362.56 172.69 355.59 177.42 348.88 182.48 342.43 187.38 335.93 192.24 329.67 196.91 323.64 200.98 317.54 204.7 311.63 208.07 305.92 210.75 300.1 213.16 294.44 215.4 288.92 217.19 283.25 219.04 277.68 221.07 272.21 223.02 266.55 225.38 260.95 228.24 255.4 231.32 249.64 235.04 243.91 239.38 238.22 244.1 232.32 249.47 226.46 255.42 220.67 261.74 214.71 268.59 208.84 275.85 203.11 283.41 197.31 291.29 191.71 299.4 186.38 307.71 181.1 316.15 176.18 324.66 171.68 333.27 167.38 341.89 163.61 350.45 160.45 359.06 157.61 367.57 155.46 375.94 154.05 384.33 153.05 392.54 152.83 400.52 153.43" stroke-dasharray="4 11" transform="rotate(20.200000000000003, 400, 400)" opacity="0.86"></path><path d="M391.58 164.04C399.02 165.02 406.06 166.71 412.7 169.05 419.33 171.68 425.54 174.87 431.35 178.55 437.16 182.38 442.59 186.6 447.69 191.14 452.85 195.68 457.76 200.45 462.48 205.41 467.42 210.24 472.32 215.18 477.31 220.2 482.71 225.02 488.4 229.89 494.49 234.79 501.21 239.45 508.51 244.14 516.46 248.85 525.11 253.34 534.43 257.88 544.34 262.48 554.73 266.88 565.45 271.37 576.25 275.98 586.88 280.43 597.04 285.04 606.35 289.8 614.59 294.46 621.35 299.32 626.27 304.38 629.98 311.99 624.29 328.36 615.98 337.16 609.53 343.08 602.7 349.28 596.11 355.75 590.85 362.21 587 368.95 585.01 375.96 585.54 382.96 588.33 390.25 593.25 397.82 600.27 405.39 608.35 413.07 616.79 420.84 625.36 428.62 632.87 436.49 638.73 444.45 642.93 452.41 644.68 460.46 643.87 468.56 640.87 476.68 635.49 484.85 628.09 493.04 619.23 501.24 609.16 509.43 598.39 517.58 587.44 525.69 576.64 533.73 566.35 541.62 556.89 549.42 548.38 557.01 540.92 564.33 534.66 571.47 529.42 578.25 525.07 584.6 520.37 593.42 513.95 607.58 511.13 612.63 504.19 617.56 487.93 615.85 480.22 612.52 474.75 610.04 468.75 607.16 462.29 603.97 455.75 601.02 448.8 597.99 441.49 594.98 434.16 592.51 426.51 590.26 418.58 588.32 410.65 587.14 402.63 586.37 394.56 586.02 386.5 586.42 378.36 587.14 370.17 588.14 361.97 589.71 353.7 591.38 345.38 593.06 337.03 595.06 328.62 596.87 320.18 598.4 311.75 599.98 303.31 601.12 294.93 601.74 286.63 602.19 278.47 602.02 270.51 601.19 262.78 600.06 255.38 598.24 248.42 595.73 241.84 592.89 235.83 589.37 230.46 585.22 225.59 580.76 221.43 575.73 218.03 570.18 215.09 564.38 212.84 558.14 211.25 551.52 209.87 544.73 208.95 537.63 208.37 530.29 207.6 522.84 206.89 515.21 206.1 507.46 204.74 499.64 203.09 491.74 201.08 483.8 198.35 475.84 195.26 467.85 191.9 459.89 188.04 451.93 184.17 443.99 180.49 436.11 176.87 428.23 173.86 420.41 171.68 412.67 170.15 404.93 169.76 397.45 170.52 390.23 172.08 383 174.7 376.01 178.24 369.27 182.25 362.51 186.85 355.97 191.83 349.67 196.74 343.31 201.69 337.17 206.53 331.21 210.87 325.19 214.91 319.34 218.62 313.64 221.68 307.85 224.44 302.18 226.96 296.62 228.99 290.93 230.95 285.33 232.97 279.8 234.79 274.11 236.86 268.46 239.29 262.87 241.8 257.1 244.8 251.36 248.34 245.66 252.13 239.8 256.5 234 261.42 228.27 266.66 222.42 272.41 216.69 278.61 211.11 285.08 205.5 291.93 200.1 299.07 194.99 306.4 189.94 313.95 185.26 321.63 181.01 329.43 176.96 337.29 173.42 345.15 170.46 353.07 167.81 360.95 165.82 368.7 164.53 376.49 163.62 384.13 163.44 391.57 164.04" stroke-dasharray="5 8" transform="rotate(24.24, 400, 400)" opacity="0.90"></path><path d="M384 174.65C390.94 175.59 397.57 177.2 403.9 179.43 410.22 181.92 416.25 184.96 422 188.46 427.78 192.11 433.32 196.15 438.68 200.51 444.14 204.88 449.52 209.51 454.87 214.32 460.46 219.04 466.17 223.89 472.09 228.84 478.41 233.62 485.08 238.47 492.19 243.36 499.81 248.05 507.95 252.78 516.61 257.53 525.74 262.08 535.32 266.68 545.23 271.33 555.31 275.8 565.4 280.35 575.27 284.99 584.71 289.48 593.42 294.09 601.08 298.84 610.12 305.89 617.48 320.75 615.32 328.64 611.99 333.91 607.23 339.43 601.38 345.17 595.38 350.89 589.23 356.86 583.47 363.08 579.02 369.28 575.89 375.74 574.46 382.47 575.27 389.18 578.06 396.17 582.71 403.42 589.22 410.67 596.68 418.02 604.49 425.46 612.5 432.9 619.67 440.43 625.46 448.02 629.92 455.62 632.28 463.29 632.39 470.98 630.58 478.68 626.56 486.41 620.6 494.12 613.17 501.82 604.4 509.48 594.73 517.06 584.6 524.59 574.27 532 564.11 539.23 554.42 546.35 545.35 553.23 537.07 559.82 529.72 566.21 523.25 572.23 517.6 577.8 510.86 585.5 501.02 597.56 497.07 601.69 489.42 605.39 474.45 602.98 467.69 599.82 462.93 597.52 457.66 594.87 451.92 591.96 446.11 589.29 439.87 586.54 433.2 583.82 426.52 581.58 419.45 579.52 412.03 577.72 404.61 576.59 397.03 575.81 389.32 575.38 381.62 575.62 373.8 576.14 365.89 576.9 357.99 578.18 350 579.55 341.96 580.94 333.94 582.65 325.89 584.21 317.85 585.54 309.88 586.97 301.96 588.02 294.17 588.63 286.54 589.14 279.12 589.12 271.99 588.53 265.14 587.72 258.69 586.29 252.72 584.24 244.64 580.46 232.21 569.53 227.98 562.54 225.72 557.49 224.04 551.99 222.88 546.12 221.8 540.07 221.04 533.7 220.49 527.07 219.66 520.32 218.8 513.36 217.78 506.23 216.18 499.05 214.27 491.74 212.01 484.34 209.08 476.93 205.83 469.45 202.35 461.96 198.45 454.46 194.58 446.96 190.92 439.48 187.36 432 184.39 424.55 182.22 417.15 180.66 409.75 180.2 402.57 180.82 395.62 182.21 388.65 184.62 381.9 187.94 375.36 191.74 368.8 196.17 362.43 201.02 356.26 205.89 350.04 210.88 344 215.83 338.12 220.38 332.17 224.7 326.36 228.74 320.69 232.18 314.92 235.32 309.25 238.2 303.68 240.55 297.99 242.77 292.37 244.94 286.81 246.8 281.11 248.79 275.46 250.99 269.86 253.15 264.1 255.67 258.4 258.59 252.74 261.66 246.96 265.21 241.25 269.24 235.64 273.5 229.94 278.25 224.37 283.43 218.98 288.84 213.58 294.64 208.42 300.78 203.54 307.09 198.76 313.67 194.33 320.44 190.33 327.33 186.53 334.35 183.23 341.43 180.48 348.58 178.02 355.73 176.18 362.85 175.01 369.99 174.19 377.05 174.06 383.99 174.65" stroke-dasharray="3 6" transform="rotate(28.28, 400, 400)" opacity="0.28"></path><path d="M379.04 185.25C385.53 186.16 391.84 187.69 397.96 189.8 404.09 192.16 410.05 195.03 415.87 198.35 421.73 201.81 427.51 205.66 433.23 209.82 439.09 214.02 444.98 218.46 450.97 223.11 457.2 227.7 463.64 232.43 470.34 237.28 477.38 241.99 484.78 246.79 492.56 251.64 500.72 256.32 509.26 261.05 518.16 265.81 527.31 270.4 536.67 275.04 546.09 279.72 555.43 284.24 564.53 288.83 573.15 293.49 581.16 298.02 588.29 302.65 594.27 307.39 600.83 314.41 604.17 329.09 600.85 336.82 597.18 341.97 592.42 347.33 586.89 352.9 581.43 358.44 576 364.2 571.05 370.19 567.37 376.15 564.91 382.36 563.97 388.8 565.03 395.24 567.79 401.92 572.17 408.85 578.19 415.77 585.05 422.78 592.24 429.86 599.69 436.94 606.48 444.09 612.14 451.28 616.75 458.48 619.57 465.71 620.45 472.95 619.68 480.18 616.91 487.41 612.31 494.59 606.31 501.75 598.91 508.84 590.46 515.81 581.37 522.72 571.82 529.47 562.14 536.02 552.61 542.44 543.4 548.61 534.69 554.46 526.64 560.12 519.26 565.4 512.59 570.24 504.06 576.88 490.77 587.02 485.4 590.36 476.08 593.02 460.74 590.14 454.46 587.17 447.72 583.85 431.99 576.38 423.04 572.68 416.92 570.65 410.4 568.78 403.51 567.11 396.62 566.04 389.53 565.25 382.29 564.76 375.07 564.86 367.71 565.2 360.25 565.73 352.83 566.74 345.32 567.84 337.79 568.95 330.32 570.38 322.85 571.68 315.45 572.81 308.16 574.05 300.99 574.98 294.02 575.55 287.24 576.07 280.73 576.14 274.57 575.71 265.99 574.57 251.75 569.25 246.31 565.08 241.98 560.04 236.43 547.27 234.92 539.7 233.99 534.37 233.27 528.71 232.64 522.76 231.66 516.71 230.57 510.41 229.29 503.93 227.42 497.38 225.25 490.67 222.74 483.84 219.63 476.99 216.24 470.05 212.68 463.05 208.77 456.04 204.92 449 201.32 441.94 197.83 434.88 194.91 427.82 192.76 420.77 191.19 413.72 190.65 406.85 191.14 400.17 192.35 393.48 194.54 386.96 197.61 380.63 201.18 374.27 205.38 368.07 210.06 362.03 214.83 355.95 219.79 350.02 224.79 344.22 229.49 338.35 234.03 332.6 238.35 326.96 242.16 321.24 245.68 315.59 248.95 310.03 251.69 304.36 254.25 298.76 256.68 293.21 258.75 287.54 260.84 281.92 263.02 276.36 265.05 270.67 267.31 265.04 269.87 259.48 272.44 253.82 275.39 248.24 278.74 242.79 282.21 237.27 286.12 231.91 290.42 226.74 294.89 221.59 299.74 216.68 304.94 212.07 310.28 207.55 315.91 203.4 321.79 199.66 327.77 196.11 333.93 193.04 340.23 190.51 346.59 188.24 353.03 186.56 359.52 185.5 366.02 184.76 372.54 184.67 379.03 185.25" stroke-dasharray="9 6" transform="rotate(32.32, 400, 400)" opacity="0.09"></path><path d="M377.51 195.86C383.62 196.73 389.66 198.18 395.64 200.17 401.64 202.39 407.6 205.09 413.53 208.22 419.52 211.49 425.54 215.13 431.62 219.09 437.83 223.09 444.17 227.34 450.67 231.8 457.38 236.23 464.33 240.82 471.54 245.52 479 250.14 486.77 254.84 494.82 259.62 503.08 264.26 511.59 268.95 520.25 273.7 528.97 278.29 537.67 282.93 546.22 287.62 554.49 292.17 562.31 296.78 569.49 301.45 575.97 306 581.49 310.63 585.85 315.36 590.15 322.36 590.15 336.88 586.05 344.46 582.26 349.51 577.67 354.73 572.57 360.14 567.71 365.51 563.01 371.08 558.84 376.84 555.89 382.59 554.05 388.54 553.55 394.71 554.8 400.86 557.52 407.24 561.63 413.83 567.18 420.42 573.46 427.07 580.04 433.76 586.93 440.46 593.3 447.2 598.77 453.96 603.42 460.71 606.58 467.48 608.09 474.22 608.2 480.95 606.54 487.65 603.21 494.27 598.57 500.85 592.55 507.33 585.41 513.67 577.51 519.94 568.96 526.03 560.05 531.88 551.03 537.62 542.06 543.08 533.33 548.21 524.99 553.17 517.1 557.76 509.74 561.91 502.97 565.84 496.75 569.3 491.03 572.24 483.51 576 470.73 580.35 464.98 580.91 459.57 580.61 448.25 577.33 442.02 574.58 435.52 571.58 420.77 564.88 412.47 561.56 406.81 559.75 400.79 558.05 394.42 556.5 388.05 555.49 381.5 554.7 374.81 554.16 368.14 554.14 361.36 554.31 354.5 554.64 347.69 555.4 340.83 556.24 333.99 557.09 327.23 558.24 320.53 559.3 313.94 560.2 307.49 561.25 301.22 562.04 295.19 562.52 286.61 563.06 271.64 561.92 265.48 560.12 256.51 553.72 248.49 538.89 247.22 532.29 245.92 525.13 242.83 509.13 240.57 500.45 238.43 494.53 235.99 488.43 233.26 482.18 229.99 475.9 226.5 469.5 222.89 463.01 218.99 456.5 215.2 449.93 211.66 443.31 208.26 436.69 205.42 430.02 203.3 423.34 201.72 416.66 201.11 410.12 201.47 403.72 202.5 397.32 204.46 391.05 207.27 384.92 210.57 378.78 214.53 372.76 218.98 366.87 223.59 360.95 228.45 355.13 233.42 349.43 238.19 343.67 242.89 338 247.43 332.42 251.55 326.76 255.43 321.18 259.08 315.66 262.23 310.06 265.19 304.5 267.98 299.01 270.37 293.42 272.7 287.88 275.04 282.4 277.14 276.83 279.37 271.32 281.78 265.89 284.1 260.4 286.7 255.01 289.6 249.75 292.53 244.46 295.81 239.34 299.45 234.42 303.16 229.54 307.24 224.9 311.64 220.57 316.14 216.34 320.95 212.47 326.03 208.99 331.18 205.71 336.56 202.88 342.14 200.55 347.76 198.48 353.54 196.95 359.45 196 365.37 195.34 371.39 195.29 377.5 195.86" stroke-dasharray="10 5" transform="rotate(36.36, 400, 400)" opacity="0.95"></path><path d="M379.66 206.47C385.44 207.29 391.27 208.66 397.13 210.53 403.01 212.61 408.96 215.14 414.98 218.08 427.18 224.34 439.93 231.9 453.36 240.4 467.36 248.84 482.29 257.9 497.97 267.31 513.9 276.31 529.91 285.57 544.98 295.01 558.46 303.96 569.17 313.18 575.82 322.67 578.87 331.79 577.17 341.36 571.07 351.4 563.45 361.25 554.63 371.72 546.87 382.82 544.58 388.35 543.3 394.06 543.18 399.94 544.58 405.81 547.25 411.87 551.09 418.11 556.19 424.35 561.9 430.63 567.9 436.92 574.24 443.22 580.17 449.53 585.38 455.82 593.73 468.4 596.51 480.87 593.3 492.99 585.42 504.93 572.89 516.3 557.48 526.78 540.92 536.8 524.24 545.6 508.58 552.85 494.51 559.32 482.1 563.99 471.16 566.63 461.76 568.46 453.02 568.35 444.39 566.4 436.35 564.17 427.68 560.69 418.12 556.31 410.85 553.43 394.91 548.08 386.24 545.89 380.36 544.94 374.36 544.16 368.27 543.57 362.19 543.44 356.05 543.47 349.89 543.62 337.7 545.07 325.65 546.56 314.16 547.76 303.21 549.55 293.25 550.33 284.72 549.83 277.07 549.1 271.1 546.7 266.95 542.63 263.33 538 261.03 531.7 259.63 523.94 257.35 515.72 254.82 506.24 251.57 495.8 246.24 485.11 239.91 473.68 232.97 461.73 229.12 455.74 225.41 449.65 221.96 443.47 218.67 437.3 215.92 431.05 213.84 424.75 212.27 418.45 211.59 412.24 211.82 406.14 212.67 400.04 214.39 394.04 216.93 388.14 223.39 376.3 232.01 364.81 241.75 353.69 251.08 342.4 260.14 331.35 268.48 320.56 275.15 309.51 281.11 298.62 286.67 288 291.08 277.14 295.85 266.58 301.32 256.55 306.57 246.51 312.99 237.24 320.6 229.06 328.36 221.34 337.3 215.07 347.23 210.61 354.83 208.03 371.07 205.92 379.65 206.47" stroke-dasharray="3 7" transform="rotate(40.400000000000006, 400, 400)" opacity="0.57"></path><path d="M385.14 217.08C396.13 218.87 407.63 222.59 419.59 227.92 431.73 233.77 444.55 240.88 458.02 248.9 471.8 256.96 486.24 265.64 500.94 274.73 515.43 283.52 529.4 292.6 541.88 301.88 552.56 310.76 560.33 319.89 564.29 329.26 565.28 338.31 562.34 347.73 556.02 357.53 549.01 367.16 541.42 377.3 535.12 387.95 532.92 398.54 534.64 409.73 540.55 421.49 550.74 433.25 561.97 445.03 571.99 456.68 580.3 468.3 584.01 479.69 582.59 490.63 577.11 501.39 567.17 511.5 554.12 520.68 539.41 529.44 523.84 537 508.54 543.1 494.06 548.54 480.74 552.34 468.67 554.35 457.84 555.73 447.83 555.43 438.27 553.54 429.34 551.52 420.23 548.42 410.7 544.54 401.29 541.45 391.16 538.27 380.31 535.29 369.45 533.9 358.43 533.05 347.52 532.68 336.76 533.68 326.38 534.7 316.73 535.48 307.54 536.87 299.41 537.42 292.68 536.89 284.24 535.28 274.63 524.19 271.95 514.75 269.24 507.63 266.12 499.3 262.24 489.98 256.48 480.46 249.9 470.12 242.93 459.19 235.34 448.2 228.81 436.72 224.38 424.91 221.81 413.09 222.62 401.5 226.6 390.22 232.46 378.9 240.5 367.81 249.82 357 259.06 346.07 268.32 335.3 277.11 324.78 284.52 314.05 291.28 303.49 297.55 293.23 302.62 282.81 307.77 272.74 313.3 263.23 318.37 253.8 324.3 245.14 331.22 237.56 338.09 230.45 346.07 224.73 355.09 220.69 364.12 217.51 374.15 216.24 385.13 217.07" stroke-dasharray="4 4" transform="rotate(44.44, 400, 400)" opacity="0.75"></path><path d="M393.05 227.68C403.51 229.37 414.62 232.82 426.28 237.75 438.05 243.19 450.48 249.82 463.38 257.34 476.36 264.95 489.64 273.21 502.73 281.9 515.27 290.39 526.84 299.21 536.59 308.24 544.56 316.96 549.69 325.93 551.42 335.1 550.88 344.01 547.21 353.23 541.05 362.75 534.84 372.12 528.54 381.89 523.61 392.06 522.35 402.18 524.45 412.78 530.01 423.79 539.25 434.8 549.39 445.72 558.62 456.4 566.72 467.03 571.08 477.35 571.13 487.13 567.77 496.74 560.29 505.64 549.67 513.6 537.16 521.2 523.23 527.65 508.94 532.73 494.83 537.28 481.32 540.36 468.73 541.86 457 542.91 446.07 542.5 435.78 540.73 426.03 538.96 416.46 536.25 406.87 532.85 397.42 530.18 387.67 527.38 377.6 524.68 367.54 523.35 357.65 522.4 348.13 521.81 338.73 522.41 329.9 523.01 321.94 523.38 311.02 524.51 295.62 522.58 291.12 518.65 288.31 515.35 286.05 510.71 284 504.84 280.75 498.68 277 491.37 272.53 483.1 266.42 474.64 259.69 465.36 252.77 455.41 245.43 445.4 239.18 434.83 234.91 423.82 232.34 412.81 232.86 401.89 236.31 391.16 241.53 380.41 248.91 369.8 257.68 359.39 266.64 348.88 275.89 338.51 284.93 328.34 292.92 318.05 300.39 307.93 307.36 298.12 313.22 288.24 318.97 278.73 324.85 269.82 330.13 261.04 336 253.04 342.63 246.08 349.07 239.59 356.46 234.41 364.86 230.79 373.2 227.94 382.6 226.85 393.05 227.68" stroke-dasharray="7 10" transform="rotate(48.48, 400, 400)" opacity="0.63"></path><path d="M402.1 238.29C412.02 239.86 422.58 243.04 433.62 247.59 444.71 252.59 456.29 258.72 468.1 265.72 479.79 272.84 491.41 280.62 502.47 288.85 512.8 296.96 521.85 305.43 528.97 314.12 534.48 322.59 537.41 331.31 537.46 340.2 535.89 348.89 531.95 357.84 526.27 367 521.01 376.06 515.98 385.43 512.31 395.08 511.89 404.69 514.26 414.65 519.47 424.89 527.79 435.13 536.87 445.17 545.29 454.88 553.02 464.54 557.77 473.8 558.97 482.46 557.42 490.97 552.19 498.75 543.95 505.59 533.78 512.13 521.86 517.59 509.09 521.8 496.02 525.61 483.04 528.1 470.58 529.22 458.6 530.03 447.27 529.6 436.58 528.01 426.32 526.48 416.43 524.16 406.82 521.22 397.35 518.95 387.93 516.51 378.56 514.07 369.2 512.81 360.31 511.79 352.02 511 343.8 511.26 336.31 511.47 329.74 511.48 320.65 512.07 307.85 509.89 303.75 506.36 300.85 503.5 298.23 499.47 295.59 494.34 291.76 488.99 287.41 482.59 282.42 475.25 276.07 467.78 269.28 459.47 262.49 450.46 255.47 441.4 249.54 431.72 245.45 421.53 242.9 411.34 243.14 401.14 246.05 391.03 250.62 380.9 257.27 370.83 265.37 360.91 273.87 350.93 282.9 341.04 291.96 331.35 300.31 321.58 308.31 312 315.9 302.75 322.52 293.49 328.94 284.63 335.34 276.36 341.1 268.28 347.21 260.96 353.85 254.65 360.22 248.78 367.36 244.13 375.36 240.92 383.28 238.4 392.18 237.47 402.1 238.29" stroke-dasharray="1 7" transform="rotate(52.52, 400, 400)" opacity="0.95"></path><path d="M410.8 248.9C420.15 250.35 429.98 253.26 440.12 257.41 450.25 261.98 460.62 267.6 470.93 274.05 481.01 280.64 490.7 287.89 499.54 295.6 507.62 303.25 514.29 311.28 519.06 319.55 522.54 327.67 523.78 336.03 522.69 344.55 520.59 352.93 516.76 361.52 511.8 370.28 507.57 378.95 503.77 387.85 501.25 396.94 501.53 406 504.09 415.29 508.93 424.75 516.38 434.2 524.44 443.35 532.01 452.1 539.26 460.82 544.16 469.05 546.21 476.66 546.1 484.14 542.83 490.89 536.81 496.74 528.98 502.34 519.26 506.95 508.36 510.43 496.86 513.61 485 515.65 473.29 516.5 461.72 517.16 450.55 516.76 439.94 515.37 429.59 514.11 419.67 512.16 410.2 509.66 400.85 507.75 391.77 505.64 383.03 503.47 374.29 502.27 366.24 501.21 358.95 500.27 348.46 500.16 331.85 499.86 325.83 498.82 320.42 497.31 311.41 489.72 306.55 483.42 302.15 478.75 297.27 473.13 291.88 466.63 285.4 460.02 278.68 452.61 272.11 444.49 265.45 436.33 259.87 427.53 255.99 418.17 253.47 408.81 253.46 399.35 255.86 389.91 259.76 380.47 265.63 371.02 272.96 361.68 280.85 352.31 289.44 343.01 298.28 333.89 306.72 324.75 315.01 315.8 323 307.19 330.25 298.62 337.29 290.47 344.21 282.91 350.55 275.55 357.06 268.93 363.89 263.26 370.42 258.02 377.52 253.89 385.29 251.07 392.97 248.87 401.46 248.1 410.8 248.9" stroke-dasharray="11 7" transform="rotate(56.56, 400, 400)" opacity="0.93"></path><path d="M417.74 259.5C426.45 260.84 435.39 263.48 444.41 267.23 453.39 271.37 462.32 276.47 470.93 282.34 479.26 288.38 486.95 295.05 493.64 302.18 499.65 309.31 504.24 316.82 507.12 324.58 509.04 332.26 509.14 340.17 507.43 348.23 505.21 356.2 501.81 364.35 497.73 372.61 494.56 380.82 491.91 389.19 490.4 397.66 491.25 406.12 493.93 414.71 498.39 423.36 505 432 512.09 440.28 518.82 448.11 525.47 455.9 530.32 463.17 532.91 469.81 533.91 476.34 532.26 482.15 528.2 487.13 522.56 491.92 515.04 495.8 506.19 498.69 496.58 501.38 486.31 503.07 475.83 503.75 465.26 504.32 454.81 504 444.73 502.85 434.77 501.85 425.19 500.26 416.09 498.17 407.06 496.59 398.43 494.79 390.27 492.86 382.11 491.74 374.76 490.65 368.23 489.61 358.8 489.1 343.91 487.89 338.25 486.55 332.78 484.9 322.53 477.86 316.75 472.24 311.86 468.13 306.57 463.16 300.92 457.4 294.44 451.56 287.88 444.96 281.61 437.68 275.38 430.37 270.18 422.42 266.53 413.89 264.07 405.36 263.83 396.68 265.73 387.97 268.97 379.27 274.04 370.52 280.53 361.84 287.67 353.16 295.63 344.54 304.01 336.09 312.26 327.65 320.54 319.42 328.68 311.52 336.31 303.71 343.78 296.31 351.1 289.49 357.96 282.88 364.86 276.97 371.91 271.95 378.69 267.31 385.84 263.69 393.43 261.26 400.94 259.35 409.03 258.73 417.74 259.5" stroke-dasharray="1 9" transform="rotate(60.599999999999994, 400, 400)" opacity="0.38"></path><path d="M421.77 270.11C429.76 271.33 437.72 273.7 445.51 277.06 453.23 280.76 460.66 285.34 467.56 290.62 474.19 296.08 480.04 302.14 484.83 308.64 489.09 315.18 492.05 322.1 493.55 329.28 494.43 336.42 493.88 343.79 492.02 351.3 490.02 358.76 487.26 366.38 484.16 374.07 482.02 381.73 480.41 389.5 479.76 397.31 481.06 405.11 483.79 412.97 487.86 420.8 493.67 428.64 499.84 436.06 505.72 442.99 511.71 449.9 516.33 456.27 519.2 462.03 520.76 470.19 511.7 482.65 502.17 486.71 494.58 489 486.14 490.44 477.25 491.03 468.09 491.58 458.81 491.37 449.69 490.46 440.55 489.72 431.67 488.46 423.19 486.74 414.75 485.47 406.69 483.95 399.11 482.25 391.53 481.22 384.75 480.13 378.75 479.02 370.05 478.19 355.95 476.2 350.2 474.58 344.37 472.76 332.67 466.08 326.07 460.99 320.82 457.33 315.28 452.92 309.53 447.8 303.19 442.63 296.92 436.77 291.03 430.27 285.26 423.75 280.47 416.61 277.07 408.91 274.69 401.22 274.26 393.34 275.69 385.41 278.29 377.48 282.55 369.49 288.15 361.56 294.43 353.63 301.59 345.76 309.3 338.07 317.07 330.41 325.06 322.96 333.04 315.84 340.73 308.82 348.35 302.21 355.85 296.16 363.01 290.31 370.16 285.11 377.33 280.73 384.29 276.68 391.44 273.55 398.82 271.49 406.12 269.86 413.78 269.37 421.77 270.11" stroke-dasharray="3 5" transform="rotate(64.64, 400, 400)" opacity="0.22"></path><path d="M422.23 280.72C429.43 281.82 436.36 283.92 442.91 286.9 449.4 290.16 455.41 294.21 460.75 298.9 465.88 303.76 470.18 309.18 473.48 315.02 476.41 320.92 478.23 327.19 478.86 333.71 479.18 340.23 478.44 346.98 476.78 353.86 475.26 360.72 473.27 367.71 471.16 374.76 469.96 381.79 469.26 388.9 469.32 395.99 470.95 403.09 473.64 410.19 477.32 417.2 482.38 424.21 487.66 430.79 492.73 436.88 500.12 445.73 507.62 460.5 506.72 466.23 502.79 471.14 487.14 477.21 476.7 478.39 469.21 478.95 461.4 478.88 453.52 478.21 445.56 477.71 437.68 476.75 430.04 475.39 422.41 474.38 415.06 473.13 408.09 471.64 397.98 470.16 381 467.41 373.92 465.97 367.09 464.8 354.69 460.95 348.57 457.95 343.99 455.84 339.3 453.14 334.46 449.84 329.02 446.54 323.41 442.6 317.73 438.04 311.67 433.46 305.79 428.27 300.35 422.5 295.1 416.71 290.74 410.36 287.61 403.49 285.34 396.62 284.74 389.57 285.75 382.45 287.74 375.33 291.21 368.16 295.89 361.02 301.24 353.91 307.48 346.86 314.34 339.98 321.4 333.15 328.79 326.53 336.32 320.23 343.74 314.04 351.18 308.24 358.54 302.95 365.71 297.86 372.85 293.37 379.93 289.61 386.88 286.13 393.88 283.47 400.92 281.75 407.92 280.39 415.04 280.01 422.23 280.72" stroke-dasharray="7 2" transform="rotate(68.68, 400, 400)" opacity="0.71"></path><path d="M419.06 291.32C431.76 293.58 442.63 299.17 450.92 307.2 458.63 315.82 463 326.37 463.67 337.96 463.97 349.63 461.82 362.15 458.78 374.83 458.98 387.49 461.47 400.34 466.78 412.73 476.32 425.11 485.14 435.77 490.93 444.32 495.07 452.72 493.79 458.85 487.74 462.45 479.44 465.94 467.96 467.13 455.14 466.13 441.84 465.75 428.35 463.98 415.75 461.04 403.14 459.75 392.44 457.76 383.47 455.14 373.91 453.7 365.13 450.9 356.68 446.56 346.63 442.56 336.1 436.48 325.56 428.38 314.2 420.25 304.38 410.01 298.15 397.89 294.68 385.78 296.92 373.04 303.85 360.44 313.14 347.96 325.38 335.79 338.84 324.78 352.47 314.19 366.39 305.16 379.89 298.6 393.15 293 406.35 290.34 419.06 291.32" stroke-dasharray="8 5" transform="rotate(72.72, 400, 400)" opacity="0.21"></path><path d="M412.76 301.93C423.72 303.87 432.56 308.65 438.89 315.53 444.91 322.92 448.13 332.03 448.6 342.11 449.27 352.32 448.37 363.32 447.05 374.45 448.43 385.6 451.42 396.87 456.24 407.62 464.24 418.37 471.55 427.53 476.6 434.81 480.96 444.63 467.93 454.16 453.75 454.21 443.26 454.17 431.98 452.88 420.82 450.43 409.66 449.23 399.61 447.22 390.63 444.54 381.2 442.77 372.1 439.83 363.19 435.64 353.2 431.77 342.95 426.22 333.07 419.02 322.86 411.85 314.2 402.91 308.69 392.4 305.37 381.89 306.75 370.87 312.08 360.02 319.42 349.29 329.55 338.9 341.05 329.58 353.04 320.65 365.56 313.11 377.76 307.72 389.93 303.1 401.81 300.98 412.76 301.93" stroke-dasharray="8 9" transform="rotate(76.76, 400, 400)" opacity="0.57"></path><path d="M404.38 312.54C413.58 314.18 420.77 318.17 425.78 323.91 430.68 330.07 433.43 337.73 434.24 346.25 435.54 354.92 435.88 364.3 436 373.81 438.2 383.36 441.44 392.98 445.7 402.13 452.26 411.27 458.13 419.01 462.31 425.15 466.75 433.51 459.36 442.02 449.03 442.47 441.15 442.71 432.09 441.82 422.49 439.82 412.89 438.73 403.66 436.78 394.95 434.16 385.95 432.21 376.98 429.25 368.15 425.26 358.69 421.56 349.19 416.52 340.3 410.2 331.42 403.92 324 396.23 319.23 387.29 316.13 378.35 316.79 369.05 320.67 359.97 326.14 350.98 334.07 342.36 343.39 334.72 353.32 327.38 363.93 321.27 374.38 316.98 384.94 313.28 395.17 311.64 404.38 312.54" stroke-dasharray="8 2" transform="rotate(80.80000000000001, 400, 400)" opacity="0.84"></path><path d="M395.27 323.15C402.78 324.49 408.64 327.71 412.82 332.35 417.01 337.32 419.7 343.53 421.11 350.49 423.05 357.58 424.41 365.29 425.62 373.13 428.29 381.02 431.51 388.97 435.16 396.53 447.36 414.94 448.32 430.16 441.09 430.92 435.44 431.35 428.44 430.8 420.48 429.22 412.51 428.25 404.38 426.45 396.36 423.99 388.2 422.01 379.89 419.15 371.72 415.47 363.28 412.02 354.95 407.53 347.34 402.09 339.91 396.68 333.77 390.21 329.77 382.81 326.97 375.42 327.07 367.82 329.67 360.47 333.44 353.2 339.26 346.31 346.35 340.27 354 334.46 362.41 329.69 370.84 326.4 379.41 323.54 387.76 322.33 395.27 323.15" stroke-dasharray="3 9" transform="rotate(84.84, 400, 400)" opacity="0.45"></path><path d="M386.94 333.75C398.71 336.18 406.09 344.22 409.61 354.9 414.87 366.04 419.77 379.11 424.62 391.11 435.76 407.33 431.67 420.83 415.11 418.61 402.51 417.39 388.02 412.96 374.22 406.32 360.19 400.3 347.36 390.97 340.31 379.2 336.38 367.43 340.85 355.53 350.36 346.3 361.58 337.7 375.17 332.69 386.94 333.75" stroke-dasharray="5 5" transform="rotate(88.88, 400, 400)" opacity="0.32"></path><path d="M380.75 344.36C389.44 346.09 395.84 351.86 399.99 359.6 405.24 367.64 410.11 377.2 414.08 386.13 421.76 398.3 419.18 409.32 407.27 408 397.99 406.96 386.75 403.23 376.04 397.81 365.51 392.77 356.06 385.43 350.85 376.63 347.46 367.84 349.78 359.29 355.78 352.87 362.83 346.81 372.05 343.41 380.75 344.36" stroke-dasharray="11 5" transform="rotate(92.92, 400, 400)" opacity="0.30"></path><path d="M377.71 354.97C389.21 357.48 398.92 370.02 403.55 381.84 411.84 393.66 410.33 400.08 398.23 397.4 386.13 396.22 368.85 386.94 361.39 375.24 357.23 363.53 366.19 353.87 377.71 354.97" stroke-dasharray="3 0" transform="rotate(96.96, 400, 400)" opacity="0.10"></path></g></svg>