<svg xmlns="http://www.w3.org/2000/svg" version="1.1" xmlns:xlink="http://www.w3.org/1999/xlink" viewBox="0 0 700 700" style="overflow: hidden; display: block;" width="700" height="700"><defs><linearGradient id="two-75" x1="350" y1="-350" x2="350" y2="350" spreadMethod="pad" gradientUnits="userSpaceOnUse"><stop offset="0%" stop-color="hsl(206, 75%, 49%)" stop-opacity="1"></stop><stop offset="100%" stop-color="hsl(331, 90%, 56%)" stop-opacity="1"></stop></linearGradient></defs><g id="two-0" transform="matrix(1 0 0 1 0 0)" opacity="1"><path transform="matrix(1 0 0 1 350 350)" id="two-74" d="M 250.770892 67.193858 C 244.654159 91.580992 268.760442 128.763257 248.276483 143.342494 C 205.443604 173.828335 136.008776 61.871933 96.120227 96.120227 C 72.042026 116.793761 132.096413 168.059569 110.402403 191.222572 C 96.701578 205.851139 68.71884 192.990854 49.879181 186.15164 C 30.964595 179.285226 19.554483 146.330113 0 151.076837 C -57.496834 165.033821 -23.909339 311.484169 -83.056567 309.971326 C -116.642921 309.112269 -97.667441 236.202035 -125.545442 217.451083 C -149.675147 201.221264 -200.568249 239.587532 -213.581839 213.581838 C -240.218926 160.351637 -82.992567 116.637617 -111.896846 64.603673 C -136.498969 20.31454 -221.444303 96.474267 -265.285859 71.083131 C -288.155045 57.838286 -311.124946 24.865331 -302.172803 0 C -287.96438 -39.46509 -196.786878 -9.312489 -185.148613 -49.610422 C -174.476628 -86.562573 -273.709228 -113.778632 -251.680605 -145.307865 C -223.511773 -185.625486 -154.217248 -92.096543 -107.512366 -107.512366 C -94.283285 -111.878873 -92.767287 -132.851706 -81.073306 -140.423084 C -69.447977 -147.950013 -54.305561 -150.536476 -40.464565 -151.015811 C -26.885222 -151.486083 -13.351723 -140.884278 -0.000001 -143.404435 C 17.65782 -146.737374 31.483521 -161.921581 46.163637 -172.28504 C 79.985594 -196.161725 110.376408 -273.71653 144.469871 -250.229159 C 188.536417 -219.871219 59.412283 -135.020521 95.60982 -95.609821 C 121.835113 -67.056577 192.036379 -155.611583 210.231725 -121.377344 C 230.749701 -82.773115 101.36456 -72.403819 113.834723 -30.501923 C 130.103612 24.164347 258.263341 -50.920365 283.957586 -0.000001 C 295.098748 22.079341 256.78751 43.205879 250.770892 67.193858 Z " fill="url(#two-75)" stroke="undefined" stroke-width="1" stroke-opacity="1" fill-opacity="1" visibility="visible" stroke-linecap="butt" stroke-linejoin="miter" stroke-miterlimit="4"></path></g></svg>