<svg xmlns="http://www.w3.org/2000/svg" version="1.1" xmlns:xlink="http://www.w3.org/1999/xlink" viewBox="0 0 700 700" style="overflow: hidden; display: block;" width="700" height="700"><defs><linearGradient id="two-75" x1="350" y1="-350" x2="350" y2="350" spreadMethod="pad" gradientUnits="userSpaceOnUse"><stop offset="0%" stop-color="hsl(162, 100%, 58%)" stop-opacity="1"></stop><stop offset="100%" stop-color="hsl(270, 73%, 53%)" stop-opacity="1"></stop></linearGradient></defs><g id="two-0" transform="matrix(1 0 0 1 0 0)" opacity="1"><path transform="matrix(1 0 0 1 350 350)" id="two-545" d="M 238.63019 63.940766 C 229.088362 96.823211 300.061033 134.483352 277.422697 160.170069 C 241.52741 200.898862 156.583566 79.807602 118.321892 118.321892 C 79.113866 157.788782 204.170048 244.467715 162.277063 281.072119 C 135.850879 304.162256 98.745525 246.329059 64.260859 239.824792 C 43.415437 235.893068 21.061782 238.934372 0 241.462491 C -23.02837 244.226665 -46.18651 250.730181 -68.688915 256.35052 C -100.243557 264.2318 -140.293815 305.988366 -163.514416 283.215274 C -203.043652 244.447848 -85.566198 163.531563 -120.93123 120.931229 C -142.290621 95.20194 -207.713173 158.406449 -222.004737 128.174494 C -239.911732 90.294561 -122.109739 76.059691 -134.612574 36.06933 C -152.009335 -19.574276 -270.007334 44.596754 -307.557136 0 C -325.246888 -21.009579 -318.802989 -57.022092 -310.424709 -83.17805 C -301.979206 -109.543869 -284.494911 -138.141258 -259.355879 -149.739187 C -224.665269 -165.74375 -169.444385 -115.475744 -143.740174 -143.740174 C -112.004885 -178.636397 -204.823037 -260.461216 -164.626269 -285.141063 C -127.105184 -308.178105 -99.131714 -200.556004 -55.742655 -208.034421 C -24.245306 -213.463216 -31.286297 -293.77562 -0.000001 -287.239377 C 53.752433 -276.009573 -18.205422 -143.298099 33.278791 -124.198142 C 60.477147 -114.107914 77.368707 -164.033071 102.781915 -178.0235 C 139.055852 -197.992956 191.179248 -249.735155 220.757755 -220.757756 C 249.637985 -192.464442 160.278154 -139.20499 181.405881 -104.734735 C 205.086595 -66.099236 285.624853 -117.424663 317.302588 -85.020973 C 337.061246 -64.809507 339.028108 -25.884824 327.675406 -0.000001 C 313.145214 33.129688 248.711859 29.197959 238.63019 63.940766 Z " fill="hsl(205, 69%, 50%)" stroke="undefined" stroke-width="1" stroke-opacity="1" fill-opacity="1" visibility="visible" stroke-linecap="butt" stroke-linejoin="miter" stroke-miterlimit="4"></path></g></svg>