<svg xmlns="http://www.w3.org/2000/svg" version="1.1" xmlns:xlink="http://www.w3.org/1999/xlink" viewBox="0 0 700 700" style="overflow: hidden; display: block;" width="700" height="700"><defs></defs><g id="two-0" transform="matrix(1 0 0 1 0 0)" opacity="1"><path transform="matrix(1 0 0 1 350 350)" id="two-52" d="M 320.666197 94.15609 C 304.109986 152.160506 187.07247 53.640388 137.957994 88.660219 C 123.352466 99.074321 133.658098 127.10392 121.795649 140.559672 C 110.360755 153.530444 85.26104 149.068948 74.114666 162.288481 C 46.69856 194.803817 83.689372 284.097132 41.251456 286.910184 C -11.667694 290.417997 32.085233 148.87115 -19.88142 138.278313 C -55.630064 130.99134 -66.739215 198.132575 -98.600965 215.905994 C -131.883423 234.471926 -186.831443 272.905234 -210.79792 243.273767 C -246.820211 198.736837 -104.196492 135.053045 -135.3186 86.963983 C -167.193038 37.712439 -289.055776 145.458349 -313.025337 91.912531 C -330.071452 53.833061 -243.542642 37.953058 -226.216895 0 C -217.329628 -19.468077 -215.471083 -43.56335 -219.765029 -64.528835 C -228.744307 -108.370773 -315.525418 -150.3709 -285.219204 -183.299252 C -234.673414 -238.218339 -139.249458 -47.164702 -78.771636 -90.907314 C -50.479584 -111.370489 -121.033812 -180.992858 -89.58411 -196.161838 C -59.886841 -210.485575 -50.778552 -121.496302 -18.1589 -126.297921 C 15.038451 -131.184578 8.70923 -190.212477 30.959695 -215.329411 C 58.075977 -245.939012 95.555823 -307.427632 131.450638 -287.836748 C 173.538559 -264.865754 129.335547 -190.360613 123.689804 -142.745644 C 120.853853 -118.827854 103.377631 -94.000928 110.436449 -70.973197 C 114.494534 -57.734651 132.034762 -52.485863 139.870415 -41.06966 C 148.290929 -28.801339 148.504532 -11.036817 158.484785 -0.000001 C 199.992152 45.90156 337.651819 34.647239 320.666197 94.15609 Z " fill="hsl(230, 55%, 40%)" stroke="undefined" stroke-width="1" stroke-opacity="1" fill-opacity="1" visibility="visible" stroke-linecap="butt" stroke-linejoin="miter" stroke-miterlimit="4"></path></g></svg>